<?xml version="1.0" encoding="UTF-8" ?>
<!DOCTYPE svg PUBLIC "-//W3C//DTD SVG 1.1//EN" "http://www.w3.org/Graphics/SVG/1.1/DTD/svg11.dtd">
<svg width="455pt" height="363pt" viewBox="0 0 455 363" version="1.1" xmlns="http://www.w3.org/2000/svg">
<g id="#f7f7f7ff">
</g>
<g id="#3e3e3eff">
<path fill="#3e3e3e" opacity="1.00" d=" M 189.99 83.09 C 204.13 80.90 218.95 82.08 232.13 87.84 C 259.31 98.66 278.15 126.81 278.38 155.96 C 278.63 171.81 273.75 187.71 264.48 200.58 C 266.45 201.46 268.20 202.75 269.65 204.35 C 286.12 220.89 302.70 237.32 319.14 253.88 C 322.04 256.52 322.44 260.77 321.46 264.37 C 319.62 270.02 314.72 274.61 308.84 275.76 C 305.40 276.60 301.69 275.29 299.31 272.74 C 284.01 257.38 268.70 242.03 253.32 226.75 C 250.81 224.14 247.97 221.74 246.30 218.47 C 224.59 234.79 193.45 236.70 169.40 224.38 C 145.10 212.38 128.16 186.29 128.15 159.05 C 127.34 141.59 133.43 124.01 144.33 110.40 C 155.48 96.05 172.18 86.38 189.99 83.09 M 199.44 109.53 C 189.17 110.35 179.07 114.42 171.45 121.42 C 162.28 129.33 156.56 141.01 155.50 153.02 C 154.38 165.14 158.09 177.70 165.89 187.08 C 174.02 197.46 186.74 204.19 199.93 204.86 C 214.47 206.05 229.33 199.94 238.89 188.94 C 248.25 178.59 252.84 163.90 250.48 150.10 C 248.81 138.55 242.69 127.63 233.59 120.30 C 224.28 112.30 211.60 108.62 199.44 109.53 Z" />
</g>
</svg>
