<?xml version="1.0" encoding="UTF-8" ?>
<!DOCTYPE svg PUBLIC "-//W3C//DTD SVG 1.1//EN" "http://www.w3.org/Graphics/SVG/1.1/DTD/svg11.dtd">
<svg width="158pt" height="158pt" viewBox="0 0 158 158" version="1.1" xmlns="http://www.w3.org/2000/svg">
<g id="#fbe74eff">
</g>
<g id="#f09681ff">
<path fill="#f09681" opacity="1.00" d=" M 103.51 31.52 C 108.97 26.07 113.38 19.70 118.40 13.86 C 119.90 15.95 123.30 17.68 122.57 20.63 C 120.56 24.39 116.87 26.84 114.27 30.16 C 109.73 35.99 104.94 41.63 99.89 47.02 C 98.57 48.77 96.24 48.63 94.30 48.96 C 94.13 46.54 92.93 43.75 94.54 41.57 C 97.08 37.85 100.45 34.80 103.51 31.52 Z" />
</g>
<g id="#90dac0ff">
<path fill="#90dac0" opacity="1.00" d=" M 73.24 33.99 C 74.93 34.19 76.65 34.29 78.30 34.71 C 82.34 37.65 84.88 42.08 87.85 46.00 C 88.73 47.22 89.65 48.42 90.55 49.64 C 93.27 53.56 97.77 56.21 99.29 60.93 C 98.39 62.78 97.15 64.47 95.72 65.94 C 92.17 64.43 90.19 60.96 88.00 58.01 C 87.12 56.81 86.23 55.63 85.33 54.46 C 82.03 50.20 77.99 46.60 74.56 42.46 C 72.53 40.14 73.43 36.79 73.24 33.99 Z" />
</g>
<g id="#cedd78ff">
</g>
<g id="#e7923eff">
<path fill="#e7923e" opacity="1.00" d=" M 38.33 49.27 C 49.98 48.51 61.66 48.99 73.32 49.06 C 73.25 51.93 73.18 54.80 73.09 57.67 C 61.52 57.32 49.93 58.05 38.38 57.09 C 38.38 54.48 38.36 51.88 38.33 49.27 Z" />
</g>
<g id="#c5dd80ff">
</g>
<g id="#da3764ff">
<path fill="#da3764" opacity="1.00" d=" M 108.14 57.21 C 115.01 57.82 121.39 60.74 127.78 63.16 C 130.13 64.14 132.44 65.22 134.86 66.04 C 136.67 66.34 138.51 66.41 140.34 66.56 C 140.13 68.13 140.05 69.71 139.92 71.29 C 138.63 72.39 137.36 73.50 136.16 74.68 C 135.73 74.76 134.88 74.91 134.45 74.99 C 134.28 74.26 133.92 72.81 133.75 72.08 C 131.87 72.04 129.99 72.07 128.11 72.18 C 127.59 72.18 126.54 72.18 126.01 72.19 C 125.93 71.44 125.77 69.95 125.68 69.21 C 123.74 69.17 121.80 69.23 119.86 69.29 C 119.21 69.28 117.92 69.26 117.28 69.25 C 117.15 68.51 116.89 67.01 116.76 66.26 C 114.18 66.10 111.61 66.02 109.03 65.88 L 108.11 65.84 C 108.12 63.82 108.12 61.81 108.13 59.80 C 108.13 59.15 108.14 57.86 108.14 57.21 Z" />
</g>
<g id="#ea9656ff">
</g>
<g id="#ea9158ff">
</g>
<g id="#eebb6eff">
</g>
<g id="#e387b0ff">
<path fill="#e387b0" opacity="1.00" d=" M 23.96 65.77 C 24.59 65.99 25.84 66.43 26.47 66.65 C 28.67 67.34 30.79 68.24 33.00 68.92 C 33.61 69.12 34.82 69.52 35.42 69.72 C 37.35 70.36 39.29 70.96 41.22 71.60 C 45.99 73.38 50.89 74.72 55.87 75.76 C 55.07 77.80 54.34 79.95 52.98 81.70 C 50.93 81.91 48.87 81.80 46.85 81.42 C 45.34 81.16 43.86 80.74 42.37 80.37 C 39.82 79.27 37.29 78.13 34.69 77.18 C 32.82 76.50 31.01 75.66 29.09 75.12 C 27.33 74.87 25.57 74.54 23.78 74.57 C 23.83 71.64 23.93 68.71 23.96 65.77 Z" />
</g>
<g id="#eeb480ff">
</g>
<g id="#eca253ff">
</g>
<g id="#efb67dff">
</g>
<g id="#ea9755ff">
</g>
<g id="#f2cc5bff">
<path fill="#f2cc5b" opacity="1.00" d=" M 66.58 76.84 C 66.53 75.02 66.93 72.20 69.25 72.14 C 73.64 72.07 77.70 74.06 81.82 75.31 C 87.87 77.53 94.41 78.78 99.81 82.46 C 99.65 84.77 99.50 87.08 99.16 89.38 C 89.93 88.18 81.48 84.15 72.65 81.48 C 70.39 80.47 66.85 79.85 66.58 76.84 Z" />
</g>
<g id="#efb252ff">
</g>
<g id="#e78358ff">
</g>
<g id="#eeb977ff">
</g>
<g id="#eeb67bff">
</g>
<g id="#e6983cff">
<path fill="#e6983c" opacity="1.00" d=" M 111.47 84.65 C 114.10 83.53 116.71 82.36 119.28 81.12 C 120.81 91.76 124.69 102.01 126.06 112.64 C 125.96 114.64 125.79 116.62 125.60 118.61 C 123.86 118.71 122.13 118.79 120.40 118.89 C 118.36 114.48 117.73 109.67 116.71 104.97 C 114.84 98.23 114.13 91.14 111.47 84.65 Z" />
</g>
<g id="#f6f7f7ff">
</g>
<g id="#bbe1d0ff">
</g>
<g id="#ffffffff">
</g>
<g id="#e4af4cff">
<path fill="#e4af4c" opacity="1.00" d=" M 41.56 91.40 C 44.21 92.53 46.85 93.82 49.04 95.73 C 54.85 101.96 60.78 108.08 67.10 113.80 C 65.89 115.62 64.44 117.28 63.27 119.14 C 58.75 114.52 54.08 110.05 49.78 105.22 C 47.16 102.28 43.94 100.00 40.64 97.91 C 40.88 95.73 41.26 93.57 41.56 91.40 Z" />
</g>
<g id="#a9cf7bff">
</g>
<g id="#f1d8a8ff">
</g>
<g id="#66bca1ff">
<path fill="#66bca1" opacity="1.00" d=" M 71.40 98.20 C 72.93 98.19 74.45 98.15 75.98 98.12 C 85.86 97.93 95.74 98.50 105.60 97.85 C 105.96 98.58 106.36 99.29 106.75 100.01 C 106.26 101.38 105.79 102.74 105.34 104.12 C 95.56 104.00 85.78 104.00 76.00 104.05 C 75.26 104.02 73.78 103.98 73.05 103.96 C 72.52 103.93 71.47 103.87 70.94 103.83 C 71.11 101.96 71.26 100.08 71.40 98.20 Z" />
</g>
<g id="#e5e5d1ff">
</g>
<g id="#d2da5bff">
</g>
<g id="#efa651ff">
</g>
<g id="#da3c65ff">
<path fill="#da3c65" opacity="1.00" d=" M 88.52 110.34 C 89.07 110.19 90.15 109.88 90.69 109.72 C 90.69 110.50 90.69 112.05 90.69 112.83 C 90.69 114.85 90.76 116.88 90.86 118.91 C 84.57 123.18 81.14 130.27 75.56 135.29 C 73.52 137.36 71.48 139.48 70.05 142.03 C 68.22 141.96 66.40 141.90 64.57 141.85 C 64.84 140.08 65.10 138.31 65.36 136.53 C 68.23 133.76 71.25 131.09 73.63 127.87 C 74.78 126.19 75.76 124.40 76.55 122.53 C 78.43 120.55 80.40 118.65 82.17 116.57 C 84.26 114.47 86.40 112.41 88.52 110.34 Z" />
</g>
<g id="#ea9657ff">
</g>
<g id="#f0c045ff">
</g>
<g id="#f1b6c8ff">
</g>
<g id="#e6e5d1ff">
</g>
</svg>
